<?xml version="1.0" encoding="UTF-8" standalone="no"?>
<!-- Created with Inkscape (http://www.inkscape.org/) -->

<svg
   id="svg1"
   height="512"
   width="512"
   version="1.1"
   sodipodi:docname="tools.svg"
   inkscape:version="1.2.1 (9c6d41e410, 2022-07-14)"
   inkscape:export-filename="tools-192.png"
   inkscape:export-xdpi="36"
   inkscape:export-ydpi="36"
   xmlns:inkscape="http://www.inkscape.org/namespaces/inkscape"
   xmlns:sodipodi="http://sodipodi.sourceforge.net/DTD/sodipodi-0.dtd"
   xmlns:xlink="http://www.w3.org/1999/xlink"
   xmlns="http://www.w3.org/2000/svg"
   xmlns:svg="http://www.w3.org/2000/svg"
   xmlns:rdf="http://www.w3.org/1999/02/22-rdf-syntax-ns#"
   xmlns:cc="http://creativecommons.org/ns#"
   xmlns:dc="http://purl.org/dc/elements/1.1/">
  <sodipodi:namedview
     id="namedview41"
     pagecolor="#ffffff"
     bordercolor="#000000"
     borderopacity="0.25"
     inkscape:showpageshadow="2"
     inkscape:pageopacity="0.0"
     inkscape:pagecheckerboard="0"
     inkscape:deskcolor="#d1d1d1"
     inkscape:document-units="pt"
     showgrid="false"
     inkscape:zoom="1.0464844"
     inkscape:cx="259.44008"
     inkscape:cy="230.77267"
     inkscape:window-width="1920"
     inkscape:window-height="1051"
     inkscape:window-x="-9"
     inkscape:window-y="1341"
     inkscape:window-maximized="1"
     inkscape:current-layer="svg1" />
  <metadata
     id="metadata2">
    <rdf:RDF>
      <cc:Work
         rdf:about="">
        <dc:title>tools</dc:title>
        <dc:description />
        <dc:subject>
          <rdf:Bag>
            <rdf:li />
            <rdf:li>tool</rdf:li>
          </rdf:Bag>
        </dc:subject>
        <dc:publisher>
          <cc:Agent
             rdf:about="http://www.openclipart.org">
            <dc:title>Nicu Buculei</dc:title>
          </cc:Agent>
        </dc:publisher>
        <dc:creator>
          <cc:Agent>
            <dc:title>Nicu Buculei</dc:title>
          </cc:Agent>
        </dc:creator>
        <dc:rights>
          <cc:Agent>
            <dc:title>Nicu Buculei</dc:title>
          </cc:Agent>
        </dc:rights>
        <dc:date />
        <dc:format>image/svg+xml</dc:format>
        <dc:type
           rdf:resource="http://purl.org/dc/dcmitype/StillImage" />
        <cc:license
           rdf:resource="http://web.resource.org/cc/PublicDomain" />
        <dc:language>en</dc:language>
      </cc:Work>
      <cc:License
         rdf:about="http://web.resource.org/cc/PublicDomain">
        <cc:permits
           rdf:resource="http://web.resource.org/cc/Reproduction" />
        <cc:permits
           rdf:resource="http://web.resource.org/cc/Distribution" />
        <cc:permits
           rdf:resource="http://web.resource.org/cc/DerivativeWorks" />
      </cc:License>
    </rdf:RDF>
  </metadata>
  <defs
     id="defs3">
    <linearGradient
       id="linearGradient9171">
      <stop
         id="stop9172"
         stop-color="#fded00"
         offset="0" />
      <stop
         id="stop9173"
         stop-color="#eaa600"
         offset="1" />
    </linearGradient>
    <linearGradient
       id="linearGradient7925">
      <stop
         id="stop7926"
         stop-color="#d0d0d0"
         offset="0" />
      <stop
         id="stop7927"
         stop-color="#a6a3a3"
         offset="1" />
    </linearGradient>
    <linearGradient
       id="linearGradient6053">
      <stop
         id="stop6054"
         stop-color="#eeeeef"
         offset="0" />
      <stop
         id="stop6055"
         stop-color="#eeeeef"
         stop-opacity="0"
         offset="1" />
    </linearGradient>
    <linearGradient
       id="linearGradient10435"
       y2="24.944"
       xlink:href="#linearGradient7925"
       gradientUnits="userSpaceOnUse"
       y1="51.917"
       gradientTransform="scale(0.89256,1.1204)"
       x2="25.701"
       x1="68.289001" />
    <linearGradient
       id="linearGradient10439"
       y2="37.499001"
       xlink:href="#linearGradient6053"
       gradientUnits="userSpaceOnUse"
       y1="22.576"
       gradientTransform="scale(1.0181,0.98223)"
       x2="63.214001"
       x1="67.512001" />
    <linearGradient
       id="linearGradient10443"
       y2="60.886002"
       xlink:href="#linearGradient6053"
       gradientUnits="userSpaceOnUse"
       y1="89.566002"
       gradientTransform="scale(1.0181,0.98223)"
       x2="46.098999"
       x1="31.621" />
    <linearGradient
       id="linearGradient2368"
       y2="-16.187"
       xlink:href="#linearGradient7925"
       gradientUnits="userSpaceOnUse"
       y1="-29.097"
       gradientTransform="scale(1.0029,0.99712)"
       x2="60.567001"
       x1="71.452003" />
    <linearGradient
       id="linearGradient2369"
       y2="-57.828999"
       xlink:href="#linearGradient9171"
       gradientUnits="userSpaceOnUse"
       y1="-77.68"
       gradientTransform="scale(1.0122,0.98792)"
       x2="22.690001"
       x1="39.07" />
    <linearGradient
       id="linearGradient2370"
       y2="-17.167"
       xlink:href="#linearGradient6053"
       gradientUnits="userSpaceOnUse"
       y1="-4.4481001"
       gradientTransform="scale(0.98568,1.0145)"
       x2="75.681999"
       x1="88.667" />
    <linearGradient
       id="linearGradient2371"
       y2="-6.8783002"
       gradientUnits="userSpaceOnUse"
       y1="-6.3585"
       gradientTransform="scale(0.95421,1.048)"
       x2="88.668999"
       x1="89.202003">
      <stop
         id="stop7301"
         stop-color="#fff"
         offset="0" />
      <stop
         id="stop7302"
         stop-color="#fff"
         stop-opacity="0"
         offset="1" />
    </linearGradient>
    <linearGradient
       id="linearGradient2372"
       y2="-65.390999"
       xlink:href="#linearGradient9171"
       gradientUnits="userSpaceOnUse"
       y1="-76.386002"
       gradientTransform="scale(1.1521,0.86795)"
       x2="14.759"
       x1="24.320999" />
    <linearGradient
       id="linearGradient2373"
       y2="-60.323002"
       xlink:href="#linearGradient9171"
       gradientUnits="userSpaceOnUse"
       y1="-68.063004"
       gradientTransform="scale(0.91051,1.0983)"
       x2="28.947001"
       x1="38.695999" />
    <linearGradient
       id="linearGradient2374"
       y2="-74.328003"
       xlink:href="#linearGradient9171"
       gradientUnits="userSpaceOnUse"
       y1="-64.578003"
       gradientTransform="scale(1.0189,0.9814)"
       x2="29.839001"
       x1="22.235001" />
  </defs>
  <g
     id="layer1"
     transform="matrix(5.6737822,0,0,5.6737822,-15.377818,-24.722246)">
    <g
       id="g10453"
       transform="matrix(0.9873,0.15886,-0.15886,0.9873,8.6693,-7.5326)">
      <path
         id="path1683"
         stroke-linejoin="round"
         d="m 64.661,6.0611 c -4.831,1.9764 -8.619,6.2529 -9.679,11.757 -0.673,3.493 -0.092,6.917 1.339,9.901 -3.895,8.12 -19.113,29.069 -26.331,36.587 -6.581,0.93 -12.171,5.856 -13.497,12.74 -1.006,5.227 0.712,10.321 4.096,13.932 l 2.098,-10.894 c 0.523,-2.72 3.135,-4.488 5.855,-3.964 l 7.917,1.525 c 2.72,0.523 4.488,3.135 3.964,5.855 l -2.186,11.354 c 4.83,-1.977 8.619,-6.253 9.679,-11.757 0.842,-4.372 -0.202,-8.667 -2.544,-12.074 5.389,-9.026 18.947,-28.336 26.036,-34.225 7.218,-0.328 13.571,-5.527 14.996,-12.929 1.007,-5.228 -0.711,-10.321 -4.095,-13.932 l -2.098,10.894 c -0.524,2.72 -3.135,4.488 -5.855,3.964 l -7.917,-1.525 c -2.721,-0.524 -4.489,-3.135 -3.965,-5.855 z"
         stroke="#606060"
         stroke-linecap="round"
         stroke-width="1.25"
         fill="url(#linearGradient10435)"
         style="fill:url(#linearGradient10435)" />
      <path
         id="path2940"
         d="m 63.934,7.289 c -4.83,1.9765 -7.335,5.45 -8.395,10.954 -0.672,3.493 -0.092,6.757 1.34,9.74 2.685,3.948 7.516,6.622 13.802,8.277 C 77.9,35.932 84.252,31.857 85.678,24.455 86.685,19.227 86.09,14.134 82.706,10.523 l -2.098,10.894 c -0.524,2.72 -3.135,4.488 -5.855,3.964 l -8.88,-1.685 C 63.153,23.172 61.384,20.56 61.908,17.84 Z"
         fill="url(#linearGradient10439)"
         style="fill:url(#linearGradient10439)" />
      <path
         id="path4183"
         d="m 39.019,94.502 c 4.831,-1.977 7.496,-6.253 8.556,-11.757 0.673,-3.493 0.092,-6.757 -1.339,-9.74 -2.686,-3.948 -7.517,-6.622 -13.803,-8.277 -7.218,0.328 -13.571,4.403 -14.996,11.805 -1.007,5.228 -0.413,10.321 2.971,13.932 l 2.098,-10.894 c 0.524,-2.72 3.136,-4.488 5.856,-3.964 l 8.88,1.685 c 2.72,0.524 4.488,3.136 3.964,5.856 z"
         fill="url(#linearGradient10443)"
         style="fill:url(#linearGradient10443)" />
    </g>
    <g
       id="g10444"
       fill-rule="evenodd"
       transform="translate(1.25,92.5)">
      <path
         id="path4806"
         d="m 42.78,-42.401 5.221,-6.045 28.714,29.401 c 2.519,1.375 4.236,-0.139 6.594,1.717 2.451,2.083 4.099,5.61 6.711,8.9764 L 84.157,-2.282 C 80.393,-4.9082 75.185,-6.8924 73.99,-9.5187 72.614,-11.221 75.091,-13.244 73.555,-14.786 Z"
         stroke="#606060"
         stroke-width="0.85592pt"
         fill="url(#linearGradient2368)"
         style="fill:url(#linearGradient2368)" />
      <path
         id="path4807"
         d="m 49.787,-50.094 c 0.515,-1.916 -4.266,-2.227 -7.121,-5.267 -6.8,-6.131 -18.415,-27.511 -22.967,-29.63 -10.747,-5.418 -21.334,3.289 -15.387,14.563 2.988,5.081 23.633,14.334 31.758,21.982 2.306,2.29 3.81,8.431 5.474,7.832 3.71,-2.037 7.261,-5.678 8.243,-9.48 z"
         stroke="#aa4200"
         stroke-width="0.85592pt"
         fill="url(#linearGradient2369)"
         style="fill:url(#linearGradient2369)" />
      <path
         id="path4810"
         d="m 75.243,-19.042 c 2.519,1.375 5.038,0.021 7.397,1.877 2.451,2.083 4.259,5.289 6.871,8.6556 l -5.703,5.588 C 80.045,-5.5477 75.96,-7.2108 74.765,-9.8371 73.39,-11.539 74.582,-15.007 73.046,-16.549 Z"
         fill="url(#linearGradient2370)"
         style="fill:url(#linearGradient2370)" />
      <path
         id="path4808"
         d="m 81.688,-18.594 c -2.224,0.097 -4.26,1.028 -5.844,2.818 -1.585,1.79 -2.688,4.526 -2.688,4.526 l 0.742,0.977 c 0,0 0.415,-3.439 1.92,-5.14 1.506,-1.701 5.235,-2.348 6.703,-2.412 z" />
      <path
         id="path6057"
         d="m 83.788,-2.4077 5.939,-6.0995 c 0,0 -1.766,-1.1236 -1.766,-1.9258 0,-0.803 -6.099,5.9386 -6.099,5.9386 0.321,1.1236 1.605,1.1236 1.926,2.0867 z"
         fill="url(#linearGradient2371)"
         style="fill:url(#linearGradient2371)" />
      <path
         id="path9175"
         d="m 7.3836,-68.379 c 0,0 -2.0866,-1.284 -0.1605,-3.531 1.9262,-2.247 32.103,20.385 26.645,21.027 -9.63,-6.902 -24.237,-15.891 -26.484,-17.496 z"
         fill="url(#linearGradient2372)"
         style="fill:url(#linearGradient2372)" />
      <path
         id="path9176"
         d="m 18.377,-79.777 c -1.765,-3.21 0.803,-3.852 3.211,-2.729 3.049,2.729 16.051,22.633 17.817,24.238 0.16,3.692 -19.102,-17.657 -21.028,-21.509 z"
         fill="url(#linearGradient2373)"
         style="fill:url(#linearGradient2373)" />
      <path
         id="path9177"
         d="m 13.064,-74.22 c -2.132,-2.979 -0.109,-4.998 2.414,-4.166 3.153,2.05 23.096,23.318 21.967,24.167 -0.528,0.918 -22.014,-16.403 -24.381,-20.001 z"
         fill="url(#linearGradient2374)"
         style="fill:url(#linearGradient2374)" />
    </g>
  </g>
</svg>
